<svg xmlns="http://www.w3.org/2000/svg" width="1200" height="630" viewBox="0 0 1200 630">
  <defs>
    <linearGradient id="bg" x1="0" y1="0" x2="1" y2="1">
      <stop offset="0" stop-color="#1a1f2e"/>
      <stop offset="1" stop-color="#0d1117"/>
    </linearGradient>
    <linearGradient id="cloud" x1="0" y1="0" x2="1" y2="1">
      <stop offset="0" stop-color="#F6821F"/>
      <stop offset="1" stop-color="#F49E24"/>
    </linearGradient>
  </defs>
  <rect width="1200" height="630" fill="url(#bg)"/>
  <path fill="url(#cloud)" d="M380 320c12-40 48-68 92-68 14 0 27 3 39 8 18-55 70-95 131-95 66 0 121 46 136 108 52 8 91 52 91 106 0 58-47 105-105 105H340c-48 0-87-39-87-87 0-42 30-78 70-84z"/>
  <text x="600" y="280" text-anchor="middle" fill="#fff" font-family="system-ui,sans-serif" font-size="52" font-weight="700">Cloudflare Starter Hub</text>
  <text x="600" y="360" text-anchor="middle" fill="#94a3b8" font-family="system-ui,sans-serif" font-size="28">HÍc Cloudflare të con sŃ 0</text>
</svg>
