<svg xmlns="http://www.w3.org/2000/svg" viewBox="0 0 1400 900" font-family="'Inter',-apple-system,BlinkMacSystemFont,'Segoe UI',Roboto,'PingFang SC','Microsoft YaHei',sans-serif">
<defs>
<style>
text{fill:#1A1A1A}
.t{font-size:27px;font-weight:700}
.s{font-size:15px;fill:#6B7280}
.zl{font-size:14px;font-weight:700;fill:#1A6FD4;letter-spacing:.06em}
.nt{font-size:15px;font-weight:600}
.ns{font-size:12px;fill:#6B7280}
.lt{font-size:16px;font-weight:600}
.ls{font-size:12.5px;fill:#6B7280}
.bg{font-size:11px;font-weight:700;fill:#FFFFFF}
.nn{font-size:12.5px;fill:#6B7280}
.fl{font-size:13.5px;font-weight:600}
.ph{font-size:13px;font-weight:700;fill:#1A6FD4;letter-spacing:.04em}
.pn{font-size:14px;font-weight:600}
.ct{font-size:13px;font-weight:700;fill:#1A1A1A}
.cs{font-size:11px;fill:#6B7280}
</style>
<marker id="a" viewBox="0 0 10 10" refX="8.5" refY="5" markerWidth="7" markerHeight="7" orient="auto-start-reverse"><path d="M0 0L10 5L0 10z" fill="#F6821F"/></marker>
</defs>
<rect width="1400" height="900" fill="#FFFFFF"/>
<text x="700" y="46" text-anchor="middle" class="t">Cloudflare Zero Trust — Onboarding Workflow</text>
<text x="700" y="72" text-anchor="middle" class="s">Follow the modules in order · pilot → validate → expand at every phase</text><rect x="40" y="108" width="212" height="96" rx="10" fill="#EAF2FC" stroke="#1A6FD4" stroke-width="1.3"/><text x="70" y="148" class="ph" >PHASE 1</text><text x="70" y="171" class="pn">Foundation</text><rect x="300" y="126" width="168" height="60" rx="9" fill="#F5F7FA" stroke="#D1D9E0"/><rect x="300" y="126" width="6" height="60" rx="3" fill="#F6821F"/><text x="320" y="151" class="ct">M1</text><text x="320" y="170" class="cs">Account setup</text><line x1="472" y1="156" x2="498" y2="156" stroke="#F6821F" stroke-width="2" marker-end="url(#a)"/><rect x="502" y="126" width="168" height="60" rx="9" fill="#F5F7FA" stroke="#D1D9E0"/><rect x="502" y="126" width="6" height="60" rx="3" fill="#F6821F"/><text x="522" y="151" class="ct">M1b</text><text x="522" y="170" class="cs">Account admin</text><line x1="674" y1="156" x2="700" y2="156" stroke="#F6821F" stroke-width="2" marker-end="url(#a)"/><rect x="704" y="126" width="168" height="60" rx="9" fill="#F5F7FA" stroke="#D1D9E0"/><rect x="704" y="126" width="6" height="60" rx="3" fill="#F6821F"/><text x="724" y="151" class="ct">M2</text><text x="724" y="170" class="cs">Identity provider</text><line x1="146" y1="205" x2="146" y2="213" stroke="#F6821F" stroke-width="2" marker-end="url(#a)"/><rect x="40" y="214" width="212" height="96" rx="10" fill="#EAF2FC" stroke="#1A6FD4" stroke-width="1.3"/><text x="70" y="254" class="ph" >PHASE 2</text><text x="70" y="277" class="pn">Devices</text><rect x="300" y="232" width="168" height="60" rx="9" fill="#F5F7FA" stroke="#D1D9E0"/><rect x="300" y="232" width="6" height="60" rx="3" fill="#F6821F"/><text x="320" y="257" class="ct">M3</text><text x="320" y="276" class="cs">Device enrollment</text><line x1="472" y1="262" x2="498" y2="262" stroke="#F6821F" stroke-width="2" marker-end="url(#a)"/><rect x="502" y="232" width="168" height="60" rx="9" fill="#F5F7FA" stroke="#D1D9E0"/><rect x="502" y="232" width="6" height="60" rx="3" fill="#F6821F"/><text x="522" y="257" class="ct">M3b</text><text x="522" y="276" class="cs">Device profiles</text><line x1="674" y1="262" x2="700" y2="262" stroke="#F6821F" stroke-width="2" marker-end="url(#a)"/><rect x="704" y="232" width="168" height="60" rx="9" fill="#F5F7FA" stroke="#D1D9E0"/><rect x="704" y="232" width="6" height="60" rx="3" fill="#F6821F"/><text x="724" y="257" class="ct">M3c</text><text x="724" y="276" class="cs">Posture checks</text><line x1="146" y1="311" x2="146" y2="319" stroke="#F6821F" stroke-width="2" marker-end="url(#a)"/><rect x="40" y="320" width="212" height="96" rx="10" fill="#EAF2FC" stroke="#1A6FD4" stroke-width="1.3"/><text x="70" y="360" class="ph" >PHASE 3</text><text x="70" y="383" class="pn">Access</text><rect x="300" y="338" width="168" height="60" rx="9" fill="#F5F7FA" stroke="#D1D9E0"/><rect x="300" y="338" width="6" height="60" rx="3" fill="#F6821F"/><text x="320" y="363" class="ct">M4</text><text x="320" y="382" class="cs">ZTNA (Access)</text><line x1="472" y1="368" x2="498" y2="368" stroke="#F6821F" stroke-width="2" marker-end="url(#a)"/><rect x="502" y="338" width="168" height="60" rx="9" fill="#F5F7FA" stroke="#D1D9E0"/><rect x="502" y="338" width="6" height="60" rx="3" fill="#F6821F"/><text x="522" y="363" class="ct">M4b</text><text x="522" y="382" class="cs">Connectors</text><line x1="146" y1="417" x2="146" y2="425" stroke="#F6821F" stroke-width="2" marker-end="url(#a)"/><rect x="40" y="426" width="212" height="96" rx="10" fill="#EAF2FC" stroke="#1A6FD4" stroke-width="1.3"/><text x="70" y="466" class="ph" >PHASE 4</text><text x="70" y="489" class="pn">Web filtering</text><rect x="300" y="444" width="168" height="60" rx="9" fill="#F5F7FA" stroke="#D1D9E0"/><rect x="300" y="444" width="6" height="60" rx="3" fill="#F6821F"/><text x="320" y="469" class="ct">M5</text><text x="320" y="488" class="cs">Gateway</text><line x1="472" y1="474" x2="498" y2="474" stroke="#F6821F" stroke-width="2" marker-end="url(#a)"/><rect x="502" y="444" width="168" height="60" rx="9" fill="#F5F7FA" stroke="#D1D9E0"/><rect x="502" y="444" width="6" height="60" rx="3" fill="#F6821F"/><text x="522" y="469" class="ct">M5b</text><text x="522" y="488" class="cs">Egress &amp; IP</text><line x1="674" y1="474" x2="700" y2="474" stroke="#F6821F" stroke-width="2" marker-end="url(#a)"/><rect x="704" y="444" width="168" height="60" rx="9" fill="#F5F7FA" stroke="#D1D9E0"/><rect x="704" y="444" width="6" height="60" rx="3" fill="#F6821F"/><text x="724" y="469" class="ct">M5c</text><text x="724" y="488" class="cs">Isolation</text><line x1="876" y1="474" x2="902" y2="474" stroke="#F6821F" stroke-width="2" marker-end="url(#a)"/><rect x="906" y="444" width="168" height="60" rx="9" fill="#F5F7FA" stroke="#D1D9E0"/><rect x="906" y="444" width="6" height="60" rx="3" fill="#F6821F"/><text x="926" y="469" class="ct">M5d</text><text x="926" y="488" class="cs">Shadow IT</text><line x1="146" y1="523" x2="146" y2="531" stroke="#F6821F" stroke-width="2" marker-end="url(#a)"/><rect x="40" y="532" width="212" height="96" rx="10" fill="#FFF4E8" stroke="#F6821F" stroke-width="1.3"/><text x="70" y="572" class="ph" fill="#F6821F">PHASE 5</text><text x="70" y="595" class="pn">Data &amp; AI</text><rect x="300" y="550" width="168" height="60" rx="9" fill="#F5F7FA" stroke="#D1D9E0"/><rect x="300" y="550" width="6" height="60" rx="3" fill="#F6821F"/><text x="320" y="575" class="ct">M6</text><text x="320" y="594" class="cs">DLP</text><line x1="472" y1="580" x2="498" y2="580" stroke="#F6821F" stroke-width="2" marker-end="url(#a)"/><rect x="502" y="550" width="168" height="60" rx="9" fill="#F5F7FA" stroke="#D1D9E0"/><rect x="502" y="550" width="6" height="60" rx="3" fill="#F6821F"/><text x="522" y="575" class="ct">M7</text><text x="522" y="594" class="cs">AI controls</text><line x1="674" y1="580" x2="700" y2="580" stroke="#F6821F" stroke-width="2" marker-end="url(#a)"/><rect x="704" y="550" width="168" height="60" rx="9" fill="#F5F7FA" stroke="#D1D9E0"/><rect x="704" y="550" width="6" height="60" rx="3" fill="#F6821F"/><text x="724" y="575" class="ct">M7b</text><text x="724" y="594" class="cs">Secure AI &amp; MCP</text><line x1="146" y1="629" x2="146" y2="637" stroke="#F6821F" stroke-width="2" marker-end="url(#a)"/><rect x="40" y="638" width="212" height="96" rx="10" fill="#EAF2FC" stroke="#1A6FD4" stroke-width="1.3"/><text x="70" y="678" class="ph" >PHASE 6</text><text x="70" y="701" class="pn">Network</text><rect x="300" y="656" width="168" height="60" rx="9" fill="#F5F7FA" stroke="#D1D9E0"/><rect x="300" y="656" width="6" height="60" rx="3" fill="#F6821F"/><text x="320" y="681" class="ct">M8</text><text x="320" y="700" class="cs">Cloudflare WAN</text><rect x="40" y="746" width="1320" height="66" rx="10" fill="#FFF4E8" stroke="#F6821F" stroke-width="1.4"/><g transform="translate(67,762)" fill="none" stroke="#1A6FD4" stroke-width="2" stroke-linecap="round" stroke-linejoin="round"><path d="M17 3l11 4v9c0 8-6 12-11 14-5-2-11-6-11-14V7z"/><path d="M12 16l4 4 7-8"/></g><text x="120" y="774" class="pn">Go-live</text><text x="120" y="796" class="ls">Logpush to SIEM  ·  Validate with pilot group  ·  Expand company-wide  ·  Retire the old VPN</text><text x="1348" y="150" text-anchor="end" class="nn">◀ At every phase: pilot → validate → expand</text></svg>